HIERARCHY
ROOT mixamorig:Hips
{
	OFFSET 0.000000 201.639420 0.000000
	CHANNELS 6 Xposition Yposition Zposition Xrotation Yrotation Zrotation
	JOINT mixamorig:Spine
	{
		OFFSET 0.006200 19.524994 -2.481800
		CHANNELS 3 Xrotation Yrotation Zrotation
		JOINT mixamorig:Spine1
		{
			OFFSET -0.000900 22.835007 -2.825400
			CHANNELS 3 Xrotation Yrotation Zrotation
			JOINT mixamorig:Spine2
			{
				OFFSET -0.020600 26.552490 -3.193300
				CHANNELS 3 Xrotation Yrotation Zrotation
				JOINT mixamorig:Neck
				{
					OFFSET -0.060000 30.701813 1.352200
					CHANNELS 3 Xrotation Yrotation Zrotation
					JOINT mixamorig:Head
					{
						OFFSET -0.087200 22.547607 3.670900
						CHANNELS 3 Xrotation Yrotation Zrotation
						JOINT mixamorig:HeadTop_End
						{
							OFFSET -0.830600 40.355194 7.893500
							CHANNELS 3 Xrotation Yrotation Zrotation
							End Site
							{
								OFFSET 0.000000 30.592346 0.000000
							}
						}
						JOINT mixamorig:RightEye
						{
							OFFSET -6.302100 18.118591 16.197100
							CHANNELS 3 Xrotation Yrotation Zrotation
							End Site
							{
								OFFSET 0.000000 30.592346 0.000000
							}
						}
						JOINT mixamorig:LeftEye
						{
							OFFSET 6.741500 18.382690 16.401899
							CHANNELS 3 Xrotation Yrotation Zrotation
							End Site
							{
								OFFSET 0.000000 30.592346 0.000000
							}
						}
					}
				}
				JOINT mixamorig:LeftShoulder
				{
					OFFSET 11.924900 18.230499 1.425400
					CHANNELS 3 Xrotation Yrotation Zrotation
					JOINT mixamorig:LeftArm
					{
						OFFSET 25.435989 -0.697632 -5.229300
						CHANNELS 3 Xrotation Yrotation Zrotation
						JOINT mixamorig:LeftForeArm
						{
							OFFSET 54.684776 0.000000 0.000000
							CHANNELS 3 Xrotation Yrotation Zrotation
							JOINT mixamorig:LeftHand
							{
								OFFSET 55.098175 0.000000 0.000000
								CHANNELS 3 Xrotation Yrotation Zrotation
								JOINT mixamorig:LeftHandMiddle1
								{
									OFFSET 23.369751 0.000000 0.000000
									CHANNELS 3 Xrotation Yrotation Zrotation
									JOINT mixamorig:LeftHandMiddle2
									{
										OFFSET 6.378677 0.000000 0.000000
										CHANNELS 3 Xrotation Yrotation Zrotation
										JOINT mixamorig:LeftHandMiddle3
										{
											OFFSET 6.148331 0.000000 0.000000
											CHANNELS 3 Xrotation Yrotation Zrotation
											JOINT mixamorig:LeftHandMiddle4
											{
												OFFSET 6.582504 0.000000 0.000000
												CHANNELS 3 Xrotation Yrotation Zrotation
												End Site
												{
													OFFSET -1.168900 6.395691 1.028606
												}
											}
										}
									}
								}
								JOINT mixamorig:LeftHandThumb1
								{
									OFFSET 7.235672 -3.848206 5.434273
									CHANNELS 3 Xrotation Yrotation Zrotation
									JOINT mixamorig:LeftHandThumb2
									{
										OFFSET 6.568451 -3.792297 3.792300
										CHANNELS 3 Xrotation Yrotation Zrotation
										JOINT mixamorig:LeftHandThumb3
										{
											OFFSET 6.063080 -3.500519 3.500518
											CHANNELS 3 Xrotation Yrotation Zrotation
											JOINT mixamorig:LeftHandThumb4
											{
												OFFSET 4.793182 -2.767334 2.767349
												CHANNELS 3 Xrotation Yrotation Zrotation
												End Site
												{
													OFFSET 0.101639 6.054260 1.275483
												}
											}
										}
									}
								}
								JOINT mixamorig:LeftHandIndex1
								{
									OFFSET 23.101074 -0.309540 4.992809
									CHANNELS 3 Xrotation Yrotation Zrotation
									JOINT mixamorig:LeftHandIndex2
									{
										OFFSET 6.226883 0.000000 0.000000
										CHANNELS 3 Xrotation Yrotation Zrotation
										JOINT mixamorig:LeftHandIndex3
										{
											OFFSET 6.094330 0.000000 0.000000
											CHANNELS 3 Xrotation Yrotation Zrotation
											JOINT mixamorig:LeftHandIndex4
											{
												OFFSET 5.482605 0.000000 0.000000
												CHANNELS 3 Xrotation Yrotation Zrotation
												End Site
												{
													OFFSET -1.427902 5.233032 0.797164
												}
											}
										}
									}
								}
								JOINT mixamorig:LeftHandRing1
								{
									OFFSET 22.299240 0.021149 -3.964172
									CHANNELS 3 Xrotation Yrotation Zrotation
									JOINT mixamorig:LeftHandRing2
									{
										OFFSET 6.321869 0.000000 0.000000
										CHANNELS 3 Xrotation Yrotation Zrotation
										JOINT mixamorig:LeftHandRing3
										{
											OFFSET 5.899796 0.000000 0.000000
											CHANNELS 3 Xrotation Yrotation Zrotation
											JOINT mixamorig:LeftHandRing4
											{
												OFFSET 6.517899 0.000000 0.000000
												CHANNELS 3 Xrotation Yrotation Zrotation
												End Site
												{
													OFFSET -1.637299 6.232208 0.980890
												}
											}
										}
									}
								}
								JOINT mixamorig:LeftHandPinky1
								{
									OFFSET 20.463791 -0.302338 -8.562233
									CHANNELS 3 Xrotation Yrotation Zrotation
									JOINT mixamorig:LeftHandPinky2
									{
										OFFSET 6.908646 0.000000 0.000000
										CHANNELS 3 Xrotation Yrotation Zrotation
										JOINT mixamorig:LeftHandPinky3
										{
											OFFSET 4.622849 0.000000 0.000000
											CHANNELS 3 Xrotation Yrotation Zrotation
											JOINT mixamorig:LeftHandPinky4
											{
												OFFSET 5.216080 0.000000 0.000000
												CHANNELS 3 Xrotation Yrotation Zrotation
												End Site
												{
													OFFSET -0.606308 5.116241 0.814926
												}
											}
										}
									}
								}
							}
						}
					}
				}
				JOINT mixamorig:RightShoulder
				{
					OFFSET -12.001300 18.284088 1.348900
					CHANNELS 3 Xrotation Yrotation Zrotation
					JOINT mixamorig:RightArm
					{
						OFFSET -25.308500 -0.751312 -5.164599
						CHANNELS 3 Xrotation Yrotation Zrotation
						JOINT mixamorig:RightForeArm
						{
							OFFSET -54.684429 0.000000 0.000000
							CHANNELS 3 Xrotation Yrotation Zrotation
							JOINT mixamorig:RightHand
							{
								OFFSET -55.150291 0.000000 0.000000
								CHANNELS 3 Xrotation Yrotation Zrotation
								JOINT mixamorig:RightHandMiddle1
								{
									OFFSET -23.317566 0.000000 0.000000
									CHANNELS 3 Xrotation Yrotation Zrotation
									JOINT mixamorig:RightHandMiddle2
									{
										OFFSET -6.378403 0.000000 0.000000
										CHANNELS 3 Xrotation Yrotation Zrotation
										JOINT mixamorig:RightHandMiddle3
										{
											OFFSET -6.148193 0.000000 0.000000
											CHANNELS 3 Xrotation Yrotation Zrotation
											JOINT mixamorig:RightHandMiddle4
											{
												OFFSET -6.583389 0.000000 0.000000
												CHANNELS 3 Xrotation Yrotation Zrotation
												End Site
												{
													OFFSET 1.171692 6.395905 1.029786
												}
											}
										}
									}
								}
								JOINT mixamorig:RightHandThumb1
								{
									OFFSET -7.190521 -3.860474 5.435846
									CHANNELS 3 Xrotation Yrotation Zrotation
									JOINT mixamorig:RightHandThumb2
									{
										OFFSET -6.567429 -3.791718 3.791708
										CHANNELS 3 Xrotation Yrotation Zrotation
										JOINT mixamorig:RightHandThumb3
										{
											OFFSET -6.062469 -3.500153 3.500166
											CHANNELS 3 Xrotation Yrotation Zrotation
											JOINT mixamorig:RightHandThumb4
											{
												OFFSET -4.792618 -2.767029 2.767022
												CHANNELS 3 Xrotation Yrotation Zrotation
												End Site
												{
													OFFSET -0.100327 6.053253 1.276754
												}
											}
										}
									}
								}
								JOINT mixamorig:RightHandIndex1
								{
									OFFSET -23.048981 -0.310791 4.992554
									CHANNELS 3 Xrotation Yrotation Zrotation
									JOINT mixamorig:RightHandIndex2
									{
										OFFSET -6.227539 0.000000 0.000000
										CHANNELS 3 Xrotation Yrotation Zrotation
										JOINT mixamorig:RightHandIndex3
										{
											OFFSET -6.095047 0.000000 0.000000
											CHANNELS 3 Xrotation Yrotation Zrotation
											JOINT mixamorig:RightHandIndex4
											{
												OFFSET -5.484772 0.000000 0.000000
												CHANNELS 3 Xrotation Yrotation Zrotation
												End Site
												{
													OFFSET 1.420593 5.237305 0.797056
												}
											}
										}
									}
								}
								JOINT mixamorig:RightHandRing1
								{
									OFFSET -22.246323 0.020569 -3.963762
									CHANNELS 3 Xrotation Yrotation Zrotation
									JOINT mixamorig:RightHandRing2
									{
										OFFSET -6.322128 0.000000 0.000000
										CHANNELS 3 Xrotation Yrotation Zrotation
										JOINT mixamorig:RightHandRing3
										{
											OFFSET -5.900024 0.000000 0.000000
											CHANNELS 3 Xrotation Yrotation Zrotation
											JOINT mixamorig:RightHandRing4
											{
												OFFSET -6.518356 0.000000 0.000000
												CHANNELS 3 Xrotation Yrotation Zrotation
												End Site
												{
													OFFSET 1.636398 6.232697 0.982186
												}
											}
										}
									}
								}
								JOINT mixamorig:RightHandPinky1
								{
									OFFSET -20.411011 -0.303314 -8.561701
									CHANNELS 3 Xrotation Yrotation Zrotation
									JOINT mixamorig:RightHandPinky2
									{
										OFFSET -6.907349 0.000000 0.000000
										CHANNELS 3 Xrotation Yrotation Zrotation
										JOINT mixamorig:RightHandPinky3
										{
											OFFSET -4.623840 0.000000 0.000000
											CHANNELS 3 Xrotation Yrotation Zrotation
											JOINT mixamorig:RightHandPinky4
											{
												OFFSET -5.218353 0.000000 0.000000
												CHANNELS 3 Xrotation Yrotation Zrotation
												End Site
												{
													OFFSET 0.602097 5.118835 0.816273
												}
											}
										}
									}
								}
							}
						}
					}
				}
			}
		}
	}
	JOINT mixamorig:LeftUpLeg
	{
		OFFSET 18.168400 -13.561905 -0.039000
		CHANNELS 3 Xrotation Yrotation Zrotation
		JOINT mixamorig:LeftLeg
		{
			OFFSET 0.577358 -80.825211 -3.695000
			CHANNELS 3 Xrotation Yrotation Zrotation
			JOINT mixamorig:LeftFoot
			{
				OFFSET -0.577356 -83.370262 -6.520700
				CHANNELS 3 Xrotation Yrotation Zrotation
				JOINT mixamorig:LeftToeBase
				{
					OFFSET 0.750401 -20.798306 25.135401
					CHANNELS 3 Xrotation Yrotation Zrotation
					JOINT mixamorig:LeftToe_End
					{
						OFFSET -0.000500 0.001200 19.917799
						CHANNELS 3 Xrotation Yrotation Zrotation
						End Site
						{
							OFFSET 0.000000 19.917805 0.000000
						}
					}
				}
			}
		}
	}
	JOINT mixamorig:RightUpLeg
	{
		OFFSET -18.162500 -13.585098 -0.041000
		CHANNELS 3 Xrotation Yrotation Zrotation
		JOINT mixamorig:RightLeg
		{
			OFFSET -0.595024 -80.945297 -3.631900
			CHANNELS 3 Xrotation Yrotation Zrotation
			JOINT mixamorig:RightFoot
			{
				OFFSET 0.595024 -83.218193 -6.561200
				CHANNELS 3 Xrotation Yrotation Zrotation
				JOINT mixamorig:RightToeBase
				{
					OFFSET -0.753601 -20.807106 25.115000
					CHANNELS 3 Xrotation Yrotation Zrotation
					JOINT mixamorig:RightToe_End
					{
						OFFSET 0.000299 0.001700 19.918200
						CHANNELS 3 Xrotation Yrotation Zrotation
						End Site
						{
							OFFSET 0.000000 19.918203 0.000000
						}
					}
				}
			}
		}
	}
}
MOTION
Frames: 4
Frame Time: 0.033333
-9.476818 190.449905 14.976208 -11.365811 -2.926843 -4.116538 -1.584594 -0.451528 3.497603 -0.727362 -0.073094 0.781775 -0.727370 -0.070794 0.781792 -12.340232 -0.538015 3.772779 -46.323873 -1.896100 8.491162 -0.000000 0.000001 -0.000000 -0.000000 0.000001 -0.000000 -0.000000 0.000001 -0.000000 -1.261952 8.255702 -0.992018 5.464527 -39.516742 -76.420002 -0.000008 -8.951154 -0.000043 -11.152785 4.276635 -6.980028 -0.150337 1.525467 -27.921726 0.877526 3.368747 -29.193810 0.051137 0.839308 -6.972509 -0.000001 0.000000 0.000001 2.070898 9.797377 8.975458 -3.042136 12.542877 7.201024 2.423824 17.429111 -1.253630 -0.000003 0.000002 -0.000001 -1.653134 -0.595532 -30.391545 0.373471 2.240974 -18.920990 0.025933 0.598306 -4.964186 -0.000003 -0.000001 -0.000002 1.512437 4.383833 -31.014195 0.779531 3.187327 -27.480047 0.124744 1.307286 -10.900146 0.000001 -0.000001 0.000002 1.889355 4.829602 -34.843910 0.455151 -1.601370 -21.304589 0.025937 0.598315 -4.964210 -0.000002 -0.000001 0.000001 -0.312141 -5.429508 3.340710 -0.800015 15.874236 74.566316 0.000009 6.330719 -0.000022 16.305972 2.523430 3.785086 0.352996 -2.269871 23.628618 1.039178 -3.661789 31.677639 0.187605 -1.542186 12.790727 -0.000002 -0.000001 -0.000000 -3.031274 -6.109572 -12.571237 -1.570711 -25.252784 4.830183 -3.815795 -9.003991 -4.712354 0.000002 0.000001 0.000001 -2.632039 2.628060 30.557057 0.580624 -2.786296 23.537909 0.042722 -0.771152 6.341161 -0.000000 -0.000001 -0.000003 1.929492 -5.833530 23.734801 0.555073 -2.726972 23.006650 0.027659 -1.414268 11.489284 -0.000001 -0.000002 0.000001 -0.587177 -0.673290 28.557567 0.728879 -3.104094 26.422618 0.156005 -1.467549 12.135430 0.000000 0.000001 0.000001 -2.566008 19.132349 19.774581 32.647672 3.809115 1.206746 -18.818356 3.748157 -14.007211 -0.000048 -0.000007 -0.000001 -0.000000 0.000000 0.000000 2.578724 -14.116700 -6.082127 29.873007 -5.752515 -2.574225 -19.346663 -2.269530 11.626690 -0.003393 -0.000000 -0.000002 0.000000 -0.000000 0.000000 
-9.339191 190.490967 14.449455 -11.266474 -2.795597 -4.064760 -1.201987 -0.486489 3.513413 -0.703018 -0.081350 0.790959 -0.702954 -0.078782 0.791090 -12.208182 -0.536865 3.769400 -46.083361 -1.807835 8.321891 0.000001 0.000000 -0.000000 0.000001 0.000000 -0.000000 0.000001 0.000000 -0.000000 -1.193505 8.087963 -1.187354 4.758601 -39.276231 -76.545957 -0.000003 -8.521388 -0.000014 -10.993314 4.471068 -7.135056 -0.120811 1.541769 -27.930440 0.857758 3.333180 -28.855592 0.051903 0.845584 -7.024922 0.000002 0.000000 0.000002 1.976310 9.847684 8.979394 -3.070868 12.498175 7.096019 2.388002 17.356648 -1.304660 0.000003 0.000000 0.000001 -1.604635 -0.517696 -30.124997 0.367393 2.223192 -18.765181 0.025937 0.598305 -4.964168 -0.000001 0.000002 0.000002 1.545638 4.452656 -31.198774 0.776805 3.182084 -27.431121 0.118613 1.275089 -10.628427 0.000002 0.000001 0.000001 1.990402 4.998920 -34.740661 0.453643 -1.605242 -21.270211 0.025925 0.598308 -4.964187 -0.000002 0.000002 0.000001 -0.296178 -5.326291 3.228728 -0.796043 15.785496 74.471110 -0.000004 6.374263 0.000017 16.886236 2.170109 3.873962 0.359517 -2.282596 23.528470 1.032822 -3.651472 31.577747 0.188119 -1.540282 12.776414 -0.000001 -0.000002 -0.000001 -3.067886 -6.059571 -12.587826 -1.570712 -25.252789 4.830171 -3.853933 -8.997991 -4.860542 -0.000002 0.000002 0.000002 -2.610677 2.611619 30.470416 0.575349 -2.774156 23.429014 0.042517 -0.769391 6.326529 0.000005 0.000001 0.000002 1.932861 -5.852206 23.654765 0.549668 -2.714207 22.892718 0.027596 -1.411617 11.468159 -0.000003 0.000001 0.000000 -0.583312 -0.675654 28.511446 0.722506 -3.091272 26.304792 0.155409 -1.464767 12.111992 -0.000003 -0.000000 -0.000001 -2.992839 19.013654 19.771729 32.907329 3.716939 1.124951 -18.780840 3.726860 -13.805522 -0.000002 0.000005 -0.000002 0.000000 0.000000 0.000000 2.237852 -14.060253 -6.134093 30.007637 -5.909871 -2.564101 -19.228678 -2.257837 11.642517 -0.003393 -0.000002 -0.000002 0.000000 -0.000002 -0.000000 
-9.206634 190.573654 13.796841 -11.103524 -2.659064 -4.035170 -0.745074 -0.531425 3.533216 -0.668198 -0.091501 0.797876 -0.668056 -0.088631 0.798140 -12.027824 -0.533551 3.760169 -45.880109 -1.710224 8.094685 0.000001 -0.000000 0.000001 0.000001 -0.000000 0.000001 0.000001 -0.000000 0.000001 -1.108487 7.863119 -1.387765 4.215954 -39.358026 -76.412489 0.000000 -8.360895 0.000004 -10.939543 4.604473 -7.353295 0.190040 1.996029 -27.649246 0.850738 3.320413 -28.734534 0.058546 0.897894 -7.461977 0.000001 -0.000001 0.000000 1.954478 9.846892 8.901974 -3.050315 12.487163 7.098857 2.362943 17.377757 -1.346084 0.000004 0.000001 0.000001 -1.599684 -0.532086 -29.819230 0.365253 2.216857 -18.709628 0.025936 0.598307 -4.964167 0.000002 0.000002 0.000002 1.539777 4.460546 -31.234032 0.763109 3.155598 -27.183212 0.112073 1.239724 -10.330335 0.000000 0.000000 -0.000000 2.065170 5.127471 -34.609904 0.451467 -1.610839 -21.220575 0.025937 0.598312 -4.964188 0.000005 -0.000000 0.000001 -0.267525 -5.190150 3.170874 -0.925274 15.851141 74.354539 -0.000001 6.411895 -0.000012 17.495941 1.660805 4.115522 0.357170 -2.275302 23.457421 1.026864 -3.641777 31.484051 0.187621 -1.538566 12.761676 0.000003 -0.000000 -0.000003 -3.147092 -5.981869 -12.598403 -1.570702 -25.252784 4.830198 -3.893363 -8.991706 -5.010866 0.000000 -0.000000 -0.000004 -2.596317 2.606073 30.389188 0.570427 -2.762780 23.327188 0.042353 -0.767805 6.313344 -0.000000 -0.000001 0.000000 1.923386 -5.839541 23.595102 0.544571 -2.702113 22.784808 0.027471 -1.409015 11.447334 0.000000 -0.000000 0.000004 -0.598175 -0.645335 28.485371 0.716784 -3.079692 26.198598 0.154758 -1.461711 12.086304 0.000002 -0.000003 -0.000002 -3.542703 18.883337 19.805537 33.157341 3.611183 1.021376 -18.695368 3.673953 -13.567048 -0.054310 -0.000003 -0.000002 0.000000 0.000002 0.000000 1.784531 -14.057214 -6.227933 30.128518 -6.010642 -2.433433 -19.046566 -2.214403 11.563796 -0.003393 -0.000000 -0.000002 -0.000000 -0.000000 -0.000000 
-9.088687 190.619324 13.004879 -10.899297 -2.470915 -4.015691 -0.195938 -0.589178 3.529109 -0.626260 -0.104148 0.801919 -0.626035 -0.100886 0.802346 -11.775717 -0.528324 3.727622 -45.662345 -1.610577 7.792321 -0.000001 0.000000 -0.000000 -0.000001 0.000000 -0.000000 -0.000001 0.000000 -0.000000 -1.013831 7.575065 -1.527337 3.790755 -39.874627 -76.150974 0.000002 -8.322945 -0.000002 -10.835908 4.672483 -7.674152 0.614269 2.653909 -27.358603 0.864933 3.346115 -28.978536 0.068982 0.974234 -8.100536 -0.000002 0.000002 0.000002 1.942199 9.817377 8.803015 -3.023790 12.508820 7.237279 2.356809 17.481324 -1.350718 0.000001 -0.000001 0.000002 -1.596304 -0.542559 -29.648943 0.365220 2.216767 -18.708778 0.025935 0.598303 -4.964193 -0.000002 0.000001 0.000001 1.515981 4.431974 -31.167335 0.746821 3.123720 -26.885733 0.108540 1.220188 -10.165756 -0.000000 0.000000 -0.000002 2.098039 5.186704 -34.501396 0.448332 -1.618910 -21.148904 0.025928 0.598308 -4.964207 -0.000001 -0.000001 -0.000003 -0.226618 -5.018971 3.156019 -1.210448 16.070834 74.242032 0.000002 6.419610 -0.000000 17.831829 1.354749 4.387621 0.348352 -2.253943 23.427424 1.021987 -3.633820 31.407204 0.186337 -1.537333 12.749556 -0.000002 -0.000001 -0.000003 -3.220981 -5.921304 -12.598602 -1.570698 -25.252772 4.830189 -3.927447 -8.968757 -5.112196 -0.000001 -0.000000 -0.000001 -2.588140 2.605440 30.331036 0.566420 -2.753486 23.243837 0.042201 -0.766527 6.302984 -0.000002 0.000001 0.000001 1.904512 -5.801739 23.563832 0.540206 -2.691690 22.691828 0.027142 -1.406719 11.428653 0.000001 -0.000001 0.000004 -0.625916 -0.592536 28.473126 0.712100 -3.070160 26.111222 0.154099 -1.458599 12.060282 0.000004 0.000001 -0.000001 -4.272467 18.684464 19.877102 33.552871 3.473775 0.946415 -18.632727 3.609632 -13.324876 -0.261518 -0.000003 0.000002 -0.000000 0.000000 0.000000 1.223604 -13.866682 -6.109223 30.351858 -6.433492 -2.520009 -18.871230 -2.216446 11.627571 -0.003393 -0.000000 -0.000002 0.000000 -0.000000 0.000000 
